<svg xmlns="http://www.w3.org/2000/svg" viewBox="0 0 200 200" width="200" height="200"><defs><linearGradient id="bg" x1="0%" y1="0%" x2="100%" y2="100%"><stop offset="0%" stop-color="#1a1a2e"/><stop offset="100%" stop-color="#16213e"/></linearGradient><linearGradient id="screen" x1="0%" y1="0%" x2="0%" y2="100%"><stop offset="0%" stop-color="#0f0f1a"/><stop offset="100%" stop-color="#1a1a2e"/></linearGradient><linearGradient id="notif" x1="0%" y1="0%" x2="0%" y2="100%"><stop offset="0%" stop-color="#2d2d44"/><stop offset="100%" stop-color="#25253a"/></linearGradient><linearGradient id="bell" x1="0%" y1="0%" x2="100%" y2="100%"><stop offset="0%" stop-color="#f59e0b"/><stop offset="100%" stop-color="#d97706"/></linearGradient><filter id="shadow"><feDropShadow dx="0" dy="2" stdDeviation="4" flood-color="#000" flood-opacity="0.5"/></filter></defs><circle cx="100" cy="100" r="100" fill="url(#bg)"/><rect x="52" y="20" width="96" height="168" rx="16" ry="16" fill="#2a2a3e" stroke="#3a3a5e" stroke-width="1.5" filter="url(#shadow)"/><rect x="56" y="28" width="88" height="152" rx="12" ry="12" fill="url(#screen)"/><text x="72" y="44" font-family="Arial, sans-serif" font-size="7" fill="#888" font-weight="bold">9:41</text><rect x="126" y="38" width="12" height="6" rx="1.5" fill="none" stroke="#888" stroke-width="0.8"/><rect x="127" y="39" width="7" height="4" rx="0.8" fill="#4ade80"/><rect x="88" y="30" width="24" height="5" rx="2.5" fill="#1a1a2e"/><g filter="url(#shadow)"><rect x="62" y="56" width="76" height="44" rx="8" ry="8" fill="url(#notif)" stroke="#3a3a5e" stroke-width="0.5"/><rect x="62" y="56" width="3" height="44" rx="1.5" fill="#f59e0b"/><path d="M74 68c0-3.3 2.7-6 6-6s6 2.7 6 6v2h2v1h-16v-1h2v-2z" fill="url(#bell)"/><rect x="77" y="74" width="6" height="1.5" rx="0.75" fill="#f59e0b"/><text x="88" y="67" font-family="Arial, sans-serif" font-size="6" fill="#f59e0b" font-weight="bold">Jisra</text><text x="88" y="77" font-family="Arial, sans-serif" font-size="5.5" fill="#e0e0e0">Nouvelle commande</text><text x="88" y="85" font-family="Arial, sans-serif" font-size="5.5" fill="#e0e0e0" font-weight="bold">#1024 - 450 MAD</text><text x="62" y="96" font-family="Arial, sans-serif" font-size="4.5" fill="#666">il y a 2 min</text></g><circle cx="100" cy="168" r="3" fill="#3a3a5e"/><rect x="80" y="164" width="6" height="6" rx="1" fill="#3a3a5e"/><rect x="114" y="164" width="6" height="6" rx="1" fill="#3a3a5e"/><rect x="88" y="172" width="24" height="2" rx="1" fill="#3a3a5e" opacity="0.6"/></svg>
